<svg id="icon_ios_user" xmlns="http://www.w3.org/2000/svg" width="35" height="35" viewBox="0 0 35 35">
  <g id="Page-1">
    <g id="iOS-icon">
      <g id="icon_ios_user-2" data-name="icon_ios_user">
        <rect id="_bounds" data-name="@bounds" width="35" height="35" fill="none"/>
        <path id="Shape" d="M12.153,24.305A12.152,12.152,0,0,1,3.56,3.56,12.153,12.153,0,0,1,20.746,20.746,12.073,12.073,0,0,1,12.153,24.305Zm0-23.333A11.181,11.181,0,1,0,23.333,12.153,11.193,11.193,0,0,0,12.153.972Z" transform="translate(5.347 5.347)" fill="#9b9b9b"/>
        <path id="Path-155" d="M0,17.794a2.169,2.169,0,0,1,.844-.583C2.236,16.64,3.7,16.654,5.134,16a20.143,20.143,0,0,0,.147-3.238c-.205-.287-.38-.565-.521-.789a4.942,4.942,0,0,1-.742-2.542,3.369,3.369,0,0,1-.466-.389,2.709,2.709,0,0,1-.221-2.1.484.484,0,0,1,.3-.278,5.362,5.362,0,0,1-.211-1.432,6.315,6.315,0,0,1,.292-2.79A5.073,5.073,0,0,1,8.32,0c0,.074,0,.157,0,.249,0-.091.008-.174.008-.249a4.852,4.852,0,0,1,4.12,2.442,6.315,6.315,0,0,1,.292,2.79,5.362,5.362,0,0,1-.211,1.432.484.484,0,0,1,.3.278,2.709,2.709,0,0,1-.221,2.1,3.369,3.369,0,0,1-.466.389,4.942,4.942,0,0,1-.742,2.542c-.141.224-.315.5-.521.789A20.143,20.143,0,0,0,11.031,16c1.436.653,2.9.638,4.291,1.21a2.173,2.173,0,0,1,.839.577A12.153,12.153,0,0,1,0,17.794Z" transform="translate(9.419 8.786)" fill="#9b9b9b"/>
      </g>
    </g>
  </g>
</svg>
