<svg xmlns="http://www.w3.org/2000/svg" width="35" height="14.077" viewBox="0 0 35 14.077">
  <g id="_1491071578_carnival-mask-new_year-festival-stage-theatre-art" data-name="1491071578_carnival-mask-new_year-festival-stage-theatre-art" transform="translate(0 -0.962)">
    <g id="svg7727">
      <g id="layer1" transform="translate(0 0.638)">
        <path id="path10096" d="M23.5,14.077h0a6.142,6.142,0,0,1-.828-.055A7.539,7.539,0,0,1,17.5,11.053a6.963,6.963,0,0,1-5.176,2.969,5.07,5.07,0,0,1-.644.04,9.412,9.412,0,0,1-5.847-2.395A16.846,16.846,0,0,1,.4,2.075L0,0,2.818.65A12.274,12.274,0,0,0,5.2.959l6.752.211a7.387,7.387,0,0,1,3.483,1L17.5,3.377l2.07-1.206a7.387,7.387,0,0,1,3.483-1L29.8.959A12.324,12.324,0,0,0,32.181.65L35,0l-.393,2.06a18.172,18.172,0,0,1-6.054,10.22A8.523,8.523,0,0,1,23.5,14.077ZM10.26,4.916q-.072,0-.143,0A7.036,7.036,0,0,0,6.448,6.448c.013.025,1.424,2.623,3.626,3.054a3.631,3.631,0,0,0,.693.066,6.925,6.925,0,0,0,3.814-1.532c-.013-.025-1.385-2.616-3.624-3.053A3.97,3.97,0,0,0,10.26,4.916Zm14.477,0a3.886,3.886,0,0,0-.692.065c-2.221.434-3.612,3.028-3.626,3.054a6.88,6.88,0,0,0,3.812,1.531,3.63,3.63,0,0,0,.695-.066c2.221-.433,3.612-3.027,3.626-3.053a7.107,7.107,0,0,0-3.669-1.528Q24.81,4.916,24.737,4.916Z" transform="translate(0 0.324)" fill="#9b9b9b"/>
      </g>
    </g>
  </g>
</svg>
