<svg xmlns="http://www.w3.org/2000/svg" width="23.817" height="23.739" viewBox="0 0 23.817 23.739">
  <g id="_1487565008_free-01" data-name="1487565008_free-01" transform="translate(-0.053 -0.143)">
    <g id="Layer_1">
      <path id="Shape" d="M8.551,6.25,2.321,0c-.189.261-.4.5-.592.737L7.888,6.915a.691.691,0,0,1,0,1,.681.681,0,0,1-.5.214.644.644,0,0,1-.5-.214L.734,1.735A8.917,8.917,0,0,1,0,2.329l6.229,6.25a1.655,1.655,0,0,0,2.369,0A1.7,1.7,0,0,0,8.551,6.25Z" transform="translate(14.833 14.804)" fill="#0294a5"/>
      <path id="Shape-2" data-name="Shape" d="M9.451,18.962a9.481,9.481,0,1,1,5.755-16.99h.024a1.7,1.7,0,0,1,.237.191c.047.036.089.072.13.107s.083.071.13.107l.071.071c.059.059.12.114.178.166s.119.107.178.167a10.269,10.269,0,0,1,.829.95l.023.024a2.211,2.211,0,0,1,.266.344c.029.043.059.087.09.131a9.6,9.6,0,0,1,1.492,4.016c.024.023.024.072.024.119a1.872,1.872,0,0,1,.047.356.907.907,0,0,1,.023.261V9.22a.648.648,0,0,1,.024.214,9.563,9.563,0,0,1-9.522,9.528ZM9.522.927A8.531,8.531,0,1,0,17.978,10.1a8.183,8.183,0,0,0-.331-3.113,7.964,7.964,0,0,0-.806-1.853A8.44,8.44,0,0,0,14.8,2.78l-.048-.048A8.61,8.61,0,0,0,9.522.927Z" transform="translate(0.053 0.143)" fill="#0294a5"/>
    </g>
  </g>
</svg>
